<svg height="512" viewBox="0 0 512 512" width="512" xmlns="http://www.w3.org/2000/svg"><g id="Flat"><path d="m92.715 16.055-.194 23.08-9.621-24.648-14.904 5.817 9.621 24.649-15.778-16.848-11.678 10.938 37.839 40.957 20.354-9 .361-54.812z" fill="#7eb457"/><path d="m174.35 270.78a17.811 17.811 0 0 1 -22.28-8.38l-78-150.25a35.945 35.945 0 1 1 66.59-25.98l.08.29 4.22 15.53 4.21 15.49 4.22 15.53 4.22 15.52 4.22 15.53 4.2 15.45 4.22 15.54 4.32 15.88 4.22 15.51 6.27 23.08a17.824 17.824 0 0 1 -10.71 21.26z" fill="#f98500"/><g fill="#fa6d00"><path d="m144.96 101.99-31.7 12.29a8 8 0 0 1 -5.81-14.91l33.29-12.91z"/><path d="m153.39 133.01-28.49 11.08a8 8 0 0 1 -5.82-14.91l30.09-11.7z"/><path d="m161.83 164.06-25.3 9.84a8 8 0 1 1 -5.81-14.91l26.89-10.46z"/><path d="m170.25 195.05-22.08 8.66a8 8 0 0 1 -5.82-14.91l23.68-9.29z"/><path d="m178.79 226.44-18.99 7.08a8 8 0 0 1 -5.81-14.91l20.58-7.68z"/></g><path d="m268.5 123.944a20.509 20.509 0 0 1 -8.621-20.751 34.387 34.387 0 0 0 -27.679-40.614 20.919 20.919 0 0 1 -16.491-14.279 34.937 34.937 0 0 0 -2.108-5.276 34.387 34.387 0 0 0 -62.616 28.323q.6 1.472 1.316 2.857c3.619 7 2.555 15.392-1.987 21.829a34.386 34.386 0 0 0 8.673 48.231 20.51 20.51 0 0 1 8.324 20.872 34.381 34.381 0 0 0 66.228 17.806 34.382 34.382 0 0 0 34.963-59z" fill="#598c44"/><path d="m261.548 230.53-27.556-67.692 15-22.105-13.24-8.984-9.011 13.278-12.196-29.961 15-22.105-13.24-8.984-9.011 13.278-13.811-33.927-14.818 6.032 13.811 33.927-15.722-3.21-3.201 15.677 26.174 5.344 12.196 29.962-15.723-3.211-3.201 15.677 26.175 5.344 27.555 67.692z" fill="#79ad54"/><path d="m346.452 151.409a20.507 20.507 0 0 1 -.16-22.47 34.386 34.386 0 0 0 -10.326-48.052 20.922 20.922 0 0 1 -9.89-19.443 35.057 35.057 0 0 0 .037-5.682 34.387 34.387 0 0 0 -68.674 2.624q0 1.588.142 3.142c.714 7.846-3.437 15.22-10.071 19.469a34.387 34.387 0 0 0 -10.152 47.942 20.507 20.507 0 0 1 -.16 22.47 34.381 34.381 0 0 0 54.627 41.462 34.382 34.382 0 0 0 54.627-41.462z" fill="#5f9548"/><path d="m313.177 146.29-13.352 8.901v-32.349l22.227-14.818-8.875-13.313-13.352 8.902v-36.631h-16v36.631l-13.351-8.902-8.875 13.313 22.226 14.818v32.349l-13.351-8.901-8.875 13.313 22.226 14.817v73.087h16v-73.087l22.227-14.817z" fill="#7eb457"/><path d="m400 248-96-32 52.86-158.58a48.876 48.876 0 0 1 46.368-33.42h3.627a48.877 48.877 0 0 1 30.533 10.71 48.876 48.876 0 0 1 15.835 53.621z" fill="#ffb531"/><path d="m375.669 76h48.662v16h-48.662z" fill="#f98500" transform="matrix(.986 -.164 .164 .986 -8.368 66.915)"/><path d="m359.669 124h48.662v16h-48.662z" fill="#f98500" transform="matrix(.986 -.164 .164 .986 -16.478 64.937)"/><path d="m336 168v288h-240v-288l24 16 24-16 24 16 24-16 24 16 24-16 24 16 24-16 24 16z" fill="#ffb531"/><path d="m336 234.28v221.72h-240v-48.53c88.13-29.55 175.43-83.51 240-173.19z" fill="#fcac1f"/><path d="m432 168v288h-96v-288l24 16 16-10.67 8-5.33 8 5.33 16 10.67z" fill="#f98500"/><path d="m432 444.68v11.32h-11.32l-36.68-36.69-36.68 36.69h-11.32v-11.32l40-39.99v-231.36l8-5.33 8 5.33v231.36z" fill="#f07800"/><circle cx="97.539" cy="424" fill="#f35244" r="64"/><path d="m96.384 377.548-28.894-1.388 12.432-29.009-14.707-6.302-12.316 28.736-25.585-25.585-11.314 11.313 25.585 25.587-28.736 12.315 6.302 14.706 28.562-12.24.287 29.935 16-.154-.321-33.466 31.937 1.534z" fill="#5f9548"/><path d="m232 320 8 16a39.964 39.964 0 0 0 -10.512 37.952l2.512 10.048h-32v-12.223a57.889 57.889 0 0 1 32-51.777z" fill="#5f9548"/><path d="m185.065 488a22.935 22.935 0 0 1 -21.965-16.345l-18.02-60.065a25.542 25.542 0 0 1 -1.08-7.338v-2.712a25.539 25.539 0 0 1 25.54-25.54 25.54 25.54 0 0 1 21.9 12.4l16.56 27.6v49.065a22.936 22.936 0 0 1 -22.935 22.935z" fill="#fa9f0c"/><path d="m246.935 488a22.935 22.935 0 0 0 21.965-16.345l18.02-60.065a25.542 25.542 0 0 0 1.08-7.338v-2.712a25.539 25.539 0 0 0 -25.54-25.54 25.54 25.54 0 0 0 -21.9 12.4l-16.56 27.6v49.065a22.936 22.936 0 0 0 22.935 22.935z" fill="#fa9f0c"/><rect fill="#ffb531" height="112" rx="24" width="48" x="192" y="376"/></g></svg>