<svg id="Capa_1" enable-background="new 0 0 497 497" height="512" viewBox="0 0 497 497" width="512" xmlns="http://www.w3.org/2000/svg"><g><g><g><circle cx="392.448" cy="395.984" fill="#ecb780" r="50.508"/></g><g><path d="m341.94 395.984c0 2.549.193 5.053.558 7.5h99.901c.364-2.448.558-4.951.558-7.5s-.193-5.052-.558-7.5h-99.901c-.365 2.447-.558 4.951-.558 7.5z" fill="#f1cb86"/></g></g><g><g><path d="m341.94 152.53-19.23 101.02 19.23 101.02v132.43c0 5.523-4.477 10-10 10h-252.74c-5.523 0-10-4.477-10-10v-132.43l19.22-101.02-19.22-101.02v-81.82h272.74z" fill="#b1e4f9"/></g><g><path d="m341.94 152.53-19.23 101.02 19.23 101.02v132.43c0 5.523-4.477 10-10 10h-14.24v-426.29h24.24z" fill="#90d8f9"/></g><g><path d="m69.196 152.535h272.744v202.033h-272.744z" fill="#f1f4f6"/></g><g><path d="m309.615 329.742h-40.406c-4.142 0-7.5-3.358-7.5-7.5s3.358-7.5 7.5-7.5h40.406c4.142 0 7.5 3.358 7.5 7.5s-3.358 7.5-7.5 7.5z" fill="#86a0af"/></g><g><path d="m121.725 439.85h-20.203c-4.142 0-7.5-3.358-7.5-7.5s3.358-7.5 7.5-7.5h20.203c4.142 0 7.5 3.358 7.5 7.5s-3.358 7.5-7.5 7.5z" fill="#86a0af"/></g><g><path d="m131.826 472.175h-30.305c-4.142 0-7.5-3.358-7.5-7.5s3.358-7.5 7.5-7.5h30.305c4.142 0 7.5 3.358 7.5 7.5s-3.358 7.5-7.5 7.5z" fill="#86a0af"/></g><g><path d="m141.928 329.742h-40.406c-4.142 0-7.5-3.358-7.5-7.5s3.358-7.5 7.5-7.5h40.406c4.142 0 7.5 3.358 7.5 7.5s-3.358 7.5-7.5 7.5z" fill="#86a0af"/></g><g><path d="m317.696 152.535h24.244v202.033h-24.244z" fill="#d0e2e7"/></g><g><path d="m268.259 236.378h-39.518c-3.314 0-6-2.686-6-6v-39.518c0-3.314-2.686-6-6-6h-22.346c-3.314 0-6 2.686-6 6v39.518c0 3.314-2.686 6-6 6h-39.518c-3.314 0-6 2.686-6 6v22.346c0 3.314 2.686 6 6 6h39.518c3.314 0 6 2.686 6 6v39.518c0 3.314 2.686 6 6 6h22.346c3.314 0 6-2.686 6-6v-39.518c0-3.314 2.686-6 6-6h39.518c3.314 0 6-2.686 6-6v-22.346c0-3.314-2.686-6-6-6z" fill="#dd636e"/></g><g><path d="m347.092 70.711h-283.048c-5.523 0-10-4.477-10-10v-50.711c0-5.523 4.477-10 10-10h283.049c5.523 0 10 4.477 10 10v50.711c-.001 5.523-4.478 10-10.001 10z" fill="#dd636e"/></g><g><path d="m332.849 0v70.711h14.244c5.523 0 10-4.477 10-10v-50.711c0-5.523-4.477-10-10-10z" fill="#da4a54"/></g><g><path d="m86.369 45.886c-4.142 0-7.5-3.358-7.5-7.5v-6.061c0-4.142 3.358-7.5 7.5-7.5s7.5 3.358 7.5 7.5v6.061c0 4.142-3.358 7.5-7.5 7.5z" fill="#d82e3d"/></g><g><path d="m126.102 45.886c-4.142 0-7.5-3.358-7.5-7.5v-6.061c0-4.142 3.358-7.5 7.5-7.5s7.5 3.358 7.5 7.5v6.061c0 4.142-3.358 7.5-7.5 7.5z" fill="#d82e3d"/></g><g><path d="m165.835 45.886c-4.142 0-7.5-3.358-7.5-7.5v-6.061c0-4.142 3.358-7.5 7.5-7.5s7.5 3.358 7.5 7.5v6.061c0 4.142-3.358 7.5-7.5 7.5z" fill="#d82e3d"/></g><g><path d="m205.568 45.886c-4.142 0-7.5-3.358-7.5-7.5v-6.061c0-4.142 3.358-7.5 7.5-7.5s7.5 3.358 7.5 7.5v6.061c0 4.142-3.358 7.5-7.5 7.5z" fill="#d82e3d"/></g><g><path d="m245.301 45.886c-4.142 0-7.5-3.358-7.5-7.5v-6.061c0-4.142 3.358-7.5 7.5-7.5s7.5 3.358 7.5 7.5v6.061c0 4.142-3.358 7.5-7.5 7.5z" fill="#d82e3d"/></g><g><path d="m285.034 45.886c-4.142 0-7.5-3.358-7.5-7.5v-6.061c0-4.142 3.358-7.5 7.5-7.5s7.5 3.358 7.5 7.5v6.061c0 4.142-3.358 7.5-7.5 7.5z" fill="#d82e3d"/></g><g><path d="m324.767 45.886c-4.142 0-7.5-3.358-7.5-7.5v-6.061c0-4.142 3.358-7.5 7.5-7.5s7.5 3.358 7.5 7.5v6.061c0 4.142-3.358 7.5-7.5 7.5z" fill="#d82e3d"/></g></g><g><g><circle cx="341.94" cy="446.492" fill="#f6e781" r="50.508"/></g><g><path d="m341.94 395.984c-4 0-7.885.479-11.617 1.358 22.292 5.25 38.891 25.255 38.891 49.15s-16.599 43.9-38.891 49.15c3.731.879 7.617 1.358 11.617 1.358 27.895 0 50.508-22.613 50.508-50.508s-22.613-50.508-50.508-50.508z" fill="#f1cb86"/></g><g><path d="m291.432 446.492c0 2.549.193 5.052.558 7.5h99.901c.364-2.448.558-4.951.558-7.5s-.193-5.053-.558-7.5h-99.901c-.365 2.447-.558 4.951-.558 7.5z" fill="#ecb780"/></g></g></g></svg>