<svg height="512" viewBox="0 0 512 512" width="512" xmlns="http://www.w3.org/2000/svg"><path d="m80 24h56a16 16 0 0 1 16 16v32a16 16 0 0 1 -16 16h-56z" fill="#fadbb7"/><path d="m80 71.232v16.768h56a16 16 0 0 0 16-16v-32a15.9 15.9 0 0 0 -4.329-10.88 399.936 399.936 0 0 1 -67.671 42.112z" fill="#f4c08e"/><path d="m184 24h112v64h-112z" fill="#fdb62f"/><path d="m273.025 24a120.2 120.2 0 0 1 -53.325 64h76.3v-64z" fill="#f29706"/><path d="m456 488h32v-400l-16-64-16 64z" fill="#fdb62f"/><path d="m456 120 16-16 16 16v-32l-16-64-16 64z" fill="#fadbb7"/><path d="m456 316.187v171.813h32v-217.906a400.849 400.849 0 0 1 -32 46.093z" fill="#f29706"/><path d="m16 456h40v16h-40z" fill="#f29706"/><path d="m16 424h40v16h-40z" fill="#f29706"/><path d="m16 392h40v16h-40z" fill="#fdb62f"/><path d="m16 360h40v16h-40z" fill="#fdb62f"/><path d="m16 328h40v16h-40z" fill="#fdb62f"/><path d="m16 296h40v16h-40z" fill="#fdb62f"/><path d="m16 264h40v16h-40z" fill="#fdb62f"/><path d="m16 232h40v16h-40z" fill="#fdb62f"/><path d="m16 200h40v16h-40z" fill="#fdb62f"/><path d="m16 168h40v16h-40z" fill="#fdb62f"/><path d="m16 136h40v16h-40z" fill="#fdb62f"/><path d="m40 120h256v368h-256z" fill="#6cbbc7"/><path d="m40 415.983v72.017h256v-247.085c-57.4 88.723-148.883 153.323-256 175.068z" fill="#56959f"/><path d="m328 24h96v464h-96z" fill="#ff421d"/><g fill="#fdb62f"><path d="m384 56h40v16h-40z"/><path d="m400 88h24v16h-24z"/><path d="m384 120h40v16h-40z"/><path d="m400 152h24v16h-24z"/><path d="m384 184h40v16h-40z"/><path d="m400 216h24v16h-24z"/><path d="m384 248h40v16h-40z"/><path d="m400 280h24v16h-24z"/><path d="m384 312h40v16h-40z"/><path d="m400 344h24v16h-24z"/><path d="m384 376h40v16h-40z"/><path d="m400 408h24v16h-24z"/><path d="m384 440h40v16h-40z"/></g><path d="m328 24h32v464h-32z" fill="#ff8e77"/><path d="m24 24h88v64h-88z" fill="#0071bc"/><path d="m40.73 88h71.27v-34.285a398.277 398.277 0 0 1 -71.27 34.285z" fill="#005a97"/><path d="m456 456h32v32h-32z" fill="#f4c08e"/><path d="m192 160h32v16h-32z" fill="#0071bc"/><path d="m240 160h32v16h-32z" fill="#0071bc"/><path d="m64 200h208v16h-208z" fill="#0071bc"/><path d="m64 240h208v16h-208z" fill="#0071bc"/><path d="m64 280h208v16h-208z" fill="#0071bc"/><path d="m64 360h208v16h-208z" fill="#0071bc"/><path d="m64 320h208v16h-208z" fill="#0071bc"/><path d="m64 400h208v16h-208z" fill="#0071bc"/><path d="m64 410.261v5.739h208v-16h-175.27c-10.697 3.891-21.63 7.28-32.73 10.261z" fill="#005a97"/><path d="m64 440h208v16h-208z" fill="#005a97"/><path d="m184 56h80v32h-80z" fill="#ccc"/><path d="m253.18 296h18.82v-16h-4.694q-6.84 8.2-14.126 16z" fill="#005a97"/><path d="m210.186 336h61.814v-16h-42.958c-6.097 5.545-12.423 10.835-18.856 16z" fill="#005a97"/><path d="m150.122 376h121.878v-16h-95.085c-8.723 5.643-17.621 11.036-26.793 16z" fill="#005a97"/><path d="m219.7 88h44.3v-32h-8.163a120.4 120.4 0 0 1 -36.137 32z" fill="#b3b3b3"/><circle cx="223.972" cy="72" fill="#999" r="8"/></svg>